HIERARCHY
ROOT hip
{
  OFFSET 0 0 0
  CHANNELS 6 Xposition Yposition Zposition Zrotation Yrotation Xrotation
  JOINT abdomen
  {
    OFFSET 0 20.6881 -0.73152
    CHANNELS 3 Zrotation Xrotation Yrotation
    JOINT chest
    {
      OFFSET 0 11.7043 -0.48768
      CHANNELS 3 Zrotation Xrotation Yrotation
      JOINT neck
      {
        OFFSET 0 22.1894 -2.19456
        CHANNELS 3 Zrotation Xrotation Yrotation
        JOINT head
        {
          OFFSET -0.24384 7.07133 1.2192
          CHANNELS 3 Zrotation Xrotation Yrotation
          JOINT leftEye
          {
            OFFSET 4.14528 8.04674 8.04672
            CHANNELS 3 Zrotation Xrotation Yrotation
            End Site
            {
              OFFSET 1 0 0
            }
          }
          JOINT rightEye
          {
            OFFSET -3.6576 8.04674 8.04672
            CHANNELS 3 Zrotation Xrotation Yrotation
            End Site
            {
              OFFSET 1 0 0
            }
          }
        }
      }
      JOINT rCollar
      {
        OFFSET -2.68224 19.2634 -4.8768
        CHANNELS 3 Zrotation Xrotation Yrotation
        JOINT rShldr
        {
          OFFSET -8.77824 -1.95073 1.46304
          CHANNELS 3 Zrotation Xrotation Yrotation
          JOINT rForeArm
          {
            OFFSET -28.1742 -1.7115 0.48768
            CHANNELS 3 Zrotation Xrotation Yrotation
            JOINT rHand
            {
              OFFSET -22.5879 0.773209 7.07136
              CHANNELS 3 Zrotation Xrotation Yrotation
              JOINT rThumb1
              {
                OFFSET -1.2192 -0.487915 3.41376
                CHANNELS 3 Zrotation Xrotation Yrotation
                JOINT rThumb2
                {
                  OFFSET -3.37035 -0.52449 3.41376
                  CHANNELS 3 Zrotation Xrotation Yrotation
                  End Site
                  {
                    OFFSET -1.78271 -1.18214 1.43049
                  }
                }
              }
              JOINT rIndex1
              {
                OFFSET -7.75947 0.938293 5.60832
                CHANNELS 3 Zrotation Xrotation Yrotation
                JOINT rIndex2
                {
                  OFFSET -2.54057 -0.884171 1.56538
                  CHANNELS 3 Zrotation Xrotation Yrotation
                  End Site
                  {
                    OFFSET -1.62519 -0.234802 1.16502
                  }
                }
              }
              JOINT rMid1
              {
                OFFSET -8.24714 1.18213 3.41376
                CHANNELS 3 Zrotation Xrotation Yrotation
                JOINT rMid2
                {
                  OFFSET -3.10165 -0.590103 1.0647
                  CHANNELS 3 Zrotation Xrotation Yrotation
                  End Site
                  {
                    OFFSET -2.48547 -0.328903 0.83742
                  }
                }
              }
              JOINT rRing1
              {
                OFFSET -8.82822 0.546677 1.51678
                CHANNELS 3 Zrotation Xrotation Yrotation
                JOINT rRing2
                {
                  OFFSET -2.60934 -0.819778 -0.0198488
                  CHANNELS 3 Zrotation Xrotation Yrotation
                  End Site
                  {
                    OFFSET -2.33842 -0.294052 0.168128
                  }
                }
              }
              JOINT rPinky1
              {
                OFFSET -8.27202 -0.0477905 -0.4584
                CHANNELS 3 Zrotation Xrotation Yrotation
                JOINT rPinky2
                {
                  OFFSET -1.82734 -0.647385 -0.700984
                  CHANNELS 3 Zrotation Xrotation Yrotation
                  End Site
                  {
                    OFFSET -1.69225 -0.51767 -0.607171
                  }
                }
              }
            }
          }
        }
      }
      JOINT lCollar
      {
        OFFSET 2.68224 19.2634 -4.8768
        CHANNELS 3 Zrotation Xrotation Yrotation
        JOINT lShldr
        {
          OFFSET 8.77824 -1.95073 1.46304
          CHANNELS 3 Zrotation Xrotation Yrotation
          JOINT lForeArm
          {
            OFFSET 28.1742 -1.7115 0.48768
            CHANNELS 3 Zrotation Xrotation Yrotation
            JOINT lHand
            {
              OFFSET 22.5879 0.773209 7.07136
              CHANNELS 3 Zrotation Xrotation Yrotation
              JOINT lThumb1
              {
                OFFSET 1.2192 -0.487915 3.41376
                CHANNELS 3 Zrotation Xrotation Yrotation
                JOINT lThumb2
                {
                  OFFSET 3.37035 -0.52449 3.41376
                  CHANNELS 3 Zrotation Xrotation Yrotation
                  End Site
                  {
                    OFFSET 1.78271 -1.18214 1.43049
                  }
                }
              }
              JOINT lIndex1
              {
                OFFSET 7.75947 0.938293 5.60832
                CHANNELS 3 Zrotation Xrotation Yrotation
                JOINT lIndex2
                {
                  OFFSET 2.54057 -0.884171 1.56538
                  CHANNELS 3 Zrotation Xrotation Yrotation
                  End Site
                  {
                    OFFSET 1.62519 -0.234802 1.16502
                  }
                }
              }
              JOINT lMid1
              {
                OFFSET 8.24714 1.18213 3.41376
                CHANNELS 3 Zrotation Xrotation Yrotation
                JOINT lMid2
                {
                  OFFSET 3.10165 -0.590103 1.0647
                  CHANNELS 3 Zrotation Xrotation Yrotation
                  End Site
                  {
                    OFFSET 2.48547 -0.328903 0.83742
                  }
                }
              }
              JOINT lRing1
              {
                OFFSET 8.82822 0.546677 1.51678
                CHANNELS 3 Zrotation Xrotation Yrotation
                JOINT lRing2
                {
                  OFFSET 2.60934 -0.819778 -0.0198488
                  CHANNELS 3 Zrotation Xrotation Yrotation
                  End Site
                  {
                    OFFSET 2.33842 -0.294052 0.168128
                  }
                }
              }
              JOINT lPinky1
              {
                OFFSET 8.27202 -0.0477905 -0.4584
                CHANNELS 3 Zrotation Xrotation Yrotation
                JOINT lPinky2
                {
                  OFFSET 1.82734 -0.647385 -0.700984
                  CHANNELS 3 Zrotation Xrotation Yrotation
                  End Site
                  {
                    OFFSET 1.69225 -0.51767 -0.607171
                  }
                }
              }
            }
          }
        }
      }
    }
  }
  JOINT rButtock
  {
    OFFSET -8.77824 4.35084 1.2192
    CHANNELS 3 Zrotation Xrotation Yrotation
    JOINT rThigh
    {
      OFFSET 0 -1.70687 -2.19456
      CHANNELS 3 Zrotation Xrotation Yrotation
      JOINT rShin
      {
        OFFSET 0 -36.8199 0.73152
        CHANNELS 3 Zrotation Xrotation Yrotation
        JOINT rFoot
        {
          OFFSET 0.73152 -45.1104 -5.12064
          CHANNELS 3 Zrotation Xrotation Yrotation
          End Site
          {
            OFFSET -1.1221 -3.69964 12.103
          }
        }
      }
    }
  }
  JOINT lButtock
  {
    OFFSET 8.77824 4.35084 1.2192
    CHANNELS 3 Zrotation Xrotation Yrotation
    JOINT lThigh
    {
      OFFSET 0 -1.70687 -2.19456
      CHANNELS 3 Zrotation Xrotation Yrotation
      JOINT lShin
      {
        OFFSET 0 -36.8199 0.73152
        CHANNELS 3 Zrotation Xrotation Yrotation
        JOINT lFoot
        {
          OFFSET -0.73152 -45.1104 -5.12064
          CHANNELS 3 Zrotation Xrotation Yrotation
          End Site
          {
            OFFSET 1.1221 -3.69964 12.103
          }
        }
      }
    }
  }
}
MOTION
Frames:	5
Frame Time:	0.00833333
-19.4715 72.2165 -6.93775 40.2806 -80.8561 7.3085 6.45067 19.9304 -11.767 8.10923 0.354512 -3.5283 0.52992 2.69696 4.54048 -3.94798 -58.8574 5.17548 -0.0 0.0 0.0 -0.0 0.0 0.0 -1.03184e-13 1.34732e-12 -6.24743e-14 19.7852 44.3517 73.1843 -27.4761 -28.0834 64.1981 -1.25445 -30.0714 -4.66762 8.7161e-10 -3.2967e-09 -3.51779e-09 1.58852e-09 -5.68244e-09 -6.05871e-09 8.71617e-10 -3.2967e-09 -3.51781e-09 7.73091 5.47488 0.417314 8.71609e-10 -3.2967e-09 -3.51779e-09 2.90554 0.965183 0.102902 8.71612e-10 -3.2967e-09 -3.51779e-09 10.2786 0.731801 0.0259123 8.71606e-10 -3.2967e-09 -3.51778e-09 2.22167 -0.733487 -0.20892 -1.03186e-13 1.34735e-12 -6.26948e-14 -50.8969 0.271658 -96.8157 9.23101 -3.6869 -16.3672 0.000353926 -0.234848 0.0330056 -7.76735e-09 -6.26177e-09 6.19815e-09 -1.34203e-08 -1.0825e-08 1.07223e-08 -7.76736e-09 -6.26177e-09 6.19815e-09 -7.73091 5.47488 -0.417314 -7.76735e-09 -6.26177e-09 6.19815e-09 -2.90554 0.965183 -0.102902 -7.76736e-09 -6.26178e-09 6.19814e-09 -10.2786 0.731801 -0.0259123 -7.76734e-09 -6.26178e-09 6.19814e-09 -2.22167 -0.733487 0.20892 -2.03217e-16 0.0 -3.88251e-19 -130.56 -77.5482 -149.057 -0.167057 23.6613 -0.696301 -4.91021 29.7933 8.69852 2.03217e-16 0.0 3.88251e-19 -55.2074 -74.6344 -42.9982 1.02804 59.9559 -1.65787 11.5467 -16.9449 25.6258
-19.0971 72.2244 -6.8904 40.3926 -80.8935 7.2734 6.52983 19.9226 -11.8618 8.10074 0.37367 -3.55684 0.481571 2.71826 4.52281 -3.85006 -58.7121 5.22378 -0.0 0.0 0.0 -0.0 0.0 0.0 -1.92897e-13 -5.47408e-14 1.60091e-13 19.8941 44.3918 73.1943 -27.4837 -28.1142 64.2472 -1.24561 -29.9774 -4.64992 1.03811e-09 -3.61385e-09 -4.14653e-09 1.89027e-09 -6.23098e-09 -7.14489e-09 1.03811e-09 -3.61385e-09 -4.14654e-09 7.73091 5.47488 0.417314 1.03811e-09 -3.61385e-09 -4.14652e-09 2.90554 0.965183 0.102902 1.03811e-09 -3.61385e-09 -4.14652e-09 10.2786 0.731801 0.0259123 1.0381e-09 -3.61385e-09 -4.14651e-09 2.22167 -0.733487 -0.20892 -1.92917e-13 -5.47153e-14 1.59883e-13 -50.9769 0.209364 -96.807 9.20537 -3.67223 -16.3197 0.000286895 -0.181325 0.0254824 -9.33467e-09 -6.34286e-09 4.99278e-09 -1.61291e-08 -1.0967e-08 8.64318e-09 -9.33467e-09 -6.34286e-09 4.99278e-09 -7.73091 5.47488 -0.417314 -9.33467e-09 -6.34286e-09 4.99278e-09 -2.90554 0.965183 -0.102902 -9.33468e-09 -6.34286e-09 4.99278e-09 -10.2786 0.731801 -0.0259123 -9.33466e-09 -6.34286e-09 4.99277e-09 -2.22167 -0.733487 0.20892 -2.03217e-16 0.0 -3.88251e-19 -131.717 -77.7415 -148.382 -0.165331 23.451 -0.71619 -4.44649 30.9106 7.44021 2.03217e-16 0.0 3.88251e-19 -55.9023 -74.6966 -43.6847 1.03311 60.0092 -1.65526 11.46 -16.8342 25.5401
-18.7785 72.2001 -6.80773 41.1524 -80.7706 6.3837 6.57868 19.9318 -11.9248 8.10399 0.394716 -3.57784 0.461089 2.78035 4.51803 -3.86523 -58.6228 5.22828 -0.0 0.0 0.0 -0.0 0.0 0.0 -2.25802e-13 -9.05275e-13 2.78348e-13 20.058 44.4538 73.1442 -27.4968 -28.1676 64.3309 -1.23572 -29.872 -4.63013 1.12674e-09 -3.50515e-09 -4.20689e-09 2.04468e-09 -6.04304e-09 -7.24914e-09 1.12675e-09 -3.50515e-09 -4.2069e-09 7.73091 5.47488 0.417314 1.12674e-09 -3.50515e-09 -4.20688e-09 2.90554 0.965183 0.102902 1.12675e-09 -3.50515e-09 -4.20688e-09 10.2786 0.731801 0.0259123 1.12674e-09 -3.50515e-09 -4.20687e-09 2.22167 -0.733487 -0.20892 -2.25852e-13 -9.05256e-13 2.78149e-13 -51.1414 0.169975 -96.7861 9.1698 -3.65195 -16.2536 8.65642e-07 -0.0266382 0.00374376 -9.69595e-09 -5.89684e-09 3.75811e-09 -1.67545e-08 -1.01971e-08 6.51063e-09 -9.69595e-09 -5.89684e-09 3.75811e-09 -7.73091 5.47488 -0.417314 -9.69595e-09 -5.89684e-09 3.75811e-09 -2.90554 0.965183 -0.102902 -9.69596e-09 -5.89684e-09 3.75811e-09 -10.2786 0.731801 -0.0259123 -9.69595e-09 -5.89684e-09 3.7581e-09 -2.22167 -0.733487 0.20892 -2.03217e-16 0.0 -3.88251e-19 -132.792 -77.952 -147.764 -0.163318 23.2381 -0.730711 -4.08793 31.9766 6.50054 2.03217e-16 0.0 3.88251e-19 -56.507 -74.7589 -44.2746 1.03901 60.0712 -1.65238 11.3506 -16.6835 25.4409
-18.4664 72.136 -6.73297 41.4566 -80.8579 5.8678 6.59018 19.9771 -11.9502 8.12548 0.409851 -3.58931 0.480168 2.92543 4.53134 -4.03981 -58.6324 5.17152 -0.0 0.0 0.0 -0.0 0.0 0.0 -1.63909e-13 -9.67208e-13 2.37618e-13 20.3313 44.5644 72.9767 -27.521 -28.2667 64.4858 -1.22242 -29.7296 -4.60345 1.12904e-09 -2.62235e-09 -3.28719e-09 2.02784e-09 -4.51575e-09 -5.65951e-09 1.12905e-09 -2.62235e-09 -3.2872e-09 7.73091 5.47488 0.417314 1.12904e-09 -2.62235e-09 -3.28718e-09 2.90554 0.965183 0.102902 1.12905e-09 -2.62235e-09 -3.28718e-09 10.2786 0.731801 0.0259123 1.12904e-09 -2.62235e-09 -3.28718e-09 2.22167 -0.733487 -0.20892 -1.64018e-13 -9.672e-13 2.37421e-13 -51.4318 0.165642 -96.7496 9.11696 -3.62191 -16.1555 -0.000253748 0.288013 -0.0404746 -8.13284e-09 -4.49388e-09 2.22914e-09 -1.4056e-08 -7.77207e-09 3.86494e-09 -8.13284e-09 -4.49388e-09 2.22914e-09 -7.73091 5.47488 -0.417314 -8.13284e-09 -4.49388e-09 2.22914e-09 -2.90554 0.965183 -0.102902 -8.13285e-09 -4.49388e-09 2.22914e-09 -10.2786 0.731801 -0.0259123 -8.13284e-09 -4.49388e-09 2.22913e-09 -2.22167 -0.733487 0.20892 -2.03217e-16 0.0 -3.88251e-19 -133.661 -78.2029 -147.139 -0.160482 22.9962 -0.738432 -3.93647 33.0054 6.0482 2.03217e-16 0.0 3.88251e-19 -56.9836 -74.8038 -44.7431 1.04556 60.137 -1.64838 11.2154 -16.4679 25.342
-18.1541 72.0974 -6.64764 41.7195 -80.9881 5.4867 6.58578 20.0467 -11.9513 8.15772 0.419125 -3.59408 0.523675 3.13254 4.55604 -4.31902 -58.714 5.0736 -0.0 0.0 0.0 -0.0 0.0 0.0 -3.7575e-14 -6.04242e-13 1.01725e-13 20.6921 44.7131 72.7168 -27.5525 -28.3985 64.6941 -1.20633 -29.5556 -4.57095 1.0696e-09 -1.16194e-09 -1.66498e-09 1.88845e-09 -1.98943e-09 -2.85604e-09 1.0696e-09 -1.16194e-09 -1.66499e-09 7.73091 5.47488 0.417314 1.0696e-09 -1.16194e-09 -1.66498e-09 2.90554 0.965183 0.102902 1.0696e-09 -1.16194e-09 -1.66498e-09 10.2786 0.731801 0.0259123 1.06959e-09 -1.16194e-09 -1.66498e-09 2.22167 -0.733487 -0.20892 -3.77637e-14 -6.04246e-13 1.01526e-13 -51.8034 0.185098 -96.7008 9.05304 -3.58564 -16.037 9.29402e-05 0.705066 -0.0990898 -5.23712e-09 -2.37062e-09 3.7349e-10 -9.05587e-09 -4.10136e-09 6.51644e-10 -5.23712e-09 -2.37061e-09 3.73494e-10 -7.73091 5.47488 -0.417314 -5.23712e-09 -2.37061e-09 3.7349e-10 -2.90554 0.965183 -0.102902 -5.23712e-09 -2.37061e-09 3.73486e-10 -10.2786 0.731801 -0.0259123 -5.23712e-09 -2.37061e-09 3.73482e-10 -2.22167 -0.733487 0.20892 -2.03217e-16 0.0 -3.88251e-19 -134.395 -78.4818 -146.485 -0.157282 22.7416 -0.742159 -3.91022 34.0149 5.87556 2.03217e-16 0.0 3.88251e-19 -57.3756 -74.8327 -45.1432 1.05279 60.2099 -1.64402 11.0666 -16.207 25.2516
